<svg width="159" height="61" viewBox="0 0 159 61" fill="none" xmlns="http://www.w3.org/2000/svg">
<path d="M0 59.665V0.834961H8.69736V27.5271H11.4434V24.5277H14.3888V21.5283H17.3427V18.6067H20.2881V15.6851H23.0861V12.6857H26.0314V9.67761H28.9854V6.75599H31.9307V3.83437H34.7288V0.834961H46.3715V3.83437H43.4261V6.84243H40.5501V9.84185H37.6741V12.6857H34.7288V15.6851H31.7748V18.6845H28.9074V21.6839H26.0314V24.5277H23.0861L23.2853 29.7832H26.2393V32.7826H29.1847V35.7042H32.1386V38.7123H34.928V41.7117H37.882V44.7111H40.8273V47.5549H43.7813V50.5544H46.5707V53.5538H49.5247V56.5532H52.47V59.665H40.8273V56.3976H37.882V53.476H34.928V50.5544H31.9827V47.5549H29.1067V44.5555H26.2393V41.6339H23.2853V38.7123H20.34V35.7042H17.464V32.7048H14.5967V35.7042H11.6427V38.7123H8.69736V59.665H0Z" fill="white"/>
<path d="M81.0626 50.7631V47.7435H86.9746V44.724H89.9745V41.7828H92.9745V35.822H95.9657V23.9005H92.9745V17.9397H89.9745V14.9985H86.9746V11.979H81.0626V8.95942H72.1507V11.979H66.2388V14.9985H63.318V18.018H60.3268V23.9005H57.406V35.822H60.3972V41.7828H63.318V44.8023H66.3092V47.7435H72.2211V50.7631H81.0626ZM69.2387 59.665V56.6455H60.3268V53.7043H57.406V50.7631H54.4149V47.7435H51.4941V41.7828H48.4941V17.9223H51.4941V11.9616H54.4853V8.94202H57.4764V6.0008H60.4764V3.05958H69.3091V0.0400391H84.133V3.05958H92.9657V6.07911H95.9569V9.09865H98.9568V11.9616H101.948V17.9223H104.939V41.7741H101.948V47.7348H98.7985V50.7544H95.8073V53.7739H92.8073V56.7934H83.9834V59.6563H69.2387V59.665Z" fill="white"/>
<path fill-rule="evenodd" clip-rule="evenodd" d="M129.245 0.834961H144.122H153.094V9.74875V51.5462H159V60.46H153.094H144.122H107.713H105.47H102.555V54.5424H105.47V51.5462H108.311V45.5537H111.227V39.5612H114.292V33.5688H117.283V27.6512H120.348V21.6588H123.189V15.7412H126.254V6.82742H129.245V0.834961ZM144.122 51.5462V9.74875H135.226V15.7412H132.16V21.6588H129.245V27.6512H126.179V33.5688H123.189V39.5612H120.198V45.5537H117.283V51.5462H144.122Z" fill="white"/>
</svg>
