<svg width="52" height="52" viewBox="0 0 52 52" fill="none" xmlns="http://www.w3.org/2000/svg">
<path d="M26 1C32.6304 1 38.9893 3.63392 43.6777 8.32233C48.3661 13.0107 51 19.3696 51 26C51 32.6304 48.3661 38.9893 43.6777 43.6777C38.9893 48.3661 32.6304 51 26 51V51C19.3696 51 13.0107 48.3661 8.32233 43.6777C3.63392 38.9893 1 32.6304 1 26V26C1 19.3696 3.63392 13.0107 8.32233 8.32233C13.0107 3.63392 19.3696 1 26 1V1Z" fill="#4160EA" stroke="#4160EA"/>
<path d="M17.8574 29.2148L27.684 35.4597" stroke="white"/>
<path d="M27.3578 16.3672L17.5312 22.6019" stroke="white"/>
<path d="M13.8475 32.1325C17.2345 32.1325 19.9801 29.3868 19.9801 25.9998C19.9801 22.6129 17.2345 19.8672 13.8475 19.8672C10.4605 19.8672 7.71484 22.6129 7.71484 25.9998C7.71484 29.3868 10.4605 32.1325 13.8475 32.1325Z" fill="white" stroke="white"/>
<path d="M31.787 20.4997C35.1739 20.4997 37.9196 17.754 37.9196 14.367C37.9196 10.9801 35.1739 8.23438 31.787 8.23438C28.4 8.23438 25.6543 10.9801 25.6543 14.367C25.6543 17.754 28.4 20.4997 31.787 20.4997Z" fill="white" stroke="white"/>
<path d="M31.787 43.7653C35.1739 43.7653 37.9196 41.0196 37.9196 37.6327C37.9196 34.2457 35.1739 31.5 31.787 31.5C28.4 31.5 25.6543 34.2457 25.6543 37.6327C25.6543 41.0196 28.4 43.7653 31.787 43.7653Z" fill="white" stroke="white"/>
</svg>
