<svg width="29" height="23" viewBox="0 0 29 23" fill="none" xmlns="http://www.w3.org/2000/svg">
<path fill-rule="evenodd" clip-rule="evenodd" d="M21.8856 22.7472C22.0707 22.8768 22.2853 22.9597 22.5104 22.9886C22.7356 23.0174 22.9645 22.9914 23.1771 22.9128C23.3885 22.8341 23.5766 22.7045 23.7241 22.5358C23.8717 22.367 23.974 22.1646 24.0217 21.9468C25.0356 17.2502 27.4949 5.36389 28.4177 1.0905C28.4519 0.931745 28.4417 0.766827 28.3883 0.613319C28.3349 0.45981 28.2402 0.323462 28.1144 0.218803C27.9879 0.112911 27.8351 0.0421728 27.6716 0.0138736C27.5082 -0.0144255 27.3401 0.000738848 27.1845 0.0578039C22.2928 1.8426 7.2278 7.41433 1.07022 9.66027C0.880275 9.72891 0.717029 9.85467 0.603558 10.0198C0.490087 10.1849 0.432133 10.3809 0.437891 10.5803C0.451891 10.9862 0.729554 11.3393 1.12972 11.4577C3.89118 12.2719 7.51596 13.4047 7.51596 13.4047C7.51596 13.4047 9.20994 18.4474 10.0943 21.0119C10.2039 21.3339 10.4594 21.5869 10.7966 21.6743C10.9619 21.7167 11.1353 21.717 11.3008 21.6754C11.4662 21.6338 11.6183 21.5515 11.7427 21.4362L15.3547 18.0748C15.3547 18.0748 19.522 21.0878 21.8856 22.7461V22.7472ZM9.04078 12.7676L11.0008 19.1362L11.4347 15.1032L23.3171 4.53934C23.3778 4.48521 23.4156 4.41044 23.4227 4.33002C23.4299 4.2496 23.4059 4.1695 23.3556 4.10579C23.3048 4.04205 23.2317 3.99921 23.1507 3.9856C23.0696 3.972 22.9863 3.98861 22.9169 4.03219L9.04078 12.7676Z" fill="#4160EA"/>
</svg>
