<svg width="32" height="19" viewBox="0 0 32 19" fill="none" xmlns="http://www.w3.org/2000/svg">
<path d="M15.6252 18.9159H17.4748C17.4748 18.9159 18.0302 18.8464 18.3157 18.513C18.574 18.2059 18.574 17.6349 18.574 17.6349C18.574 17.6349 18.5353 14.963 19.6874 14.5726C20.8254 14.1835 22.2875 17.1625 23.8272 18.3032C24.9923 19.166 25.8848 18.984 25.8848 18.984L30.0246 18.9284C30.0246 18.9284 32.1855 18.7895 31.1625 16.9526C31.085 16.7998 30.5684 15.6035 28.0845 13.1262C25.4831 10.5377 25.8331 10.9545 28.9628 6.47367C30.8655 3.74624 31.6288 2.07616 31.3963 1.36617C31.1638 0.685359 29.7663 0.865982 29.7663 0.865982L25.1085 0.893771C25.1085 0.893771 24.7598 0.838194 24.5002 1.00492C24.2547 1.17165 24.0868 1.5468 24.0868 1.5468C24.0868 1.5468 23.348 3.66288 22.365 5.45801C20.2958 9.24278 19.4549 9.45258 19.1178 9.21499C18.3299 8.67311 18.5236 7.01693 18.5236 5.83315C18.5236 2.15953 19.0403 0.628393 17.5136 0.239356C17.0098 0.114309 16.6339 0.0170494 15.3397 0.00315526C13.6709 -0.0107389 12.2733 0.00315453 11.4712 0.433874C10.9416 0.711757 10.5283 1.33699 10.7866 1.36478C11.0966 1.40647 11.7941 1.57459 12.157 2.10395C12.635 2.79866 12.622 4.37287 12.622 4.37287C12.622 4.37287 12.8946 8.7009 11.9762 9.22888C11.3433 9.59013 10.4882 8.83984 8.63856 5.40243C7.69307 3.63509 6.96974 1.69963 6.96974 1.69963C6.96974 1.69963 6.82765 1.33838 6.58224 1.14387C6.28386 0.907666 5.86924 0.838194 5.86924 0.838194L1.4453 0.865982C1.4453 0.865982 0.785265 0.879877 0.538557 1.19944C0.318975 1.47733 0.52564 2.04699 0.52564 2.04699C0.52564 2.04699 3.99375 10.7739 7.91394 15.1714C11.5358 19.1799 15.6252 18.9159 15.6252 18.9159Z" fill="#4160EA"/>
</svg>
