<svg width="23" height="21" viewBox="0 0 23 21" fill="none" xmlns="http://www.w3.org/2000/svg">
<path fill-rule="evenodd" clip-rule="evenodd" d="M0.4375 10.384C5.30811 10.2434 7.53489 10.1275 9.31211 8.47122C11.0472 6.77478 11.1697 4.65013 11.316 0C6.78211 0 3.63993 0.0146088 2.0282 1.51839C0.451848 3.05687 0.4375 6.19683 0.4375 10.384ZM0.4375 10.616C0.4375 14.8032 0.452804 17.9431 2.02724 19.4816C3.63993 20.9863 6.78115 21 11.3151 21C11.3045 20.6384 11.2931 20.2924 11.2816 19.96C11.14 16.023 10.9124 14.0928 9.31211 12.5279C7.53585 10.8725 5.30811 10.7566 0.4375 10.616ZM11.559 21C16.0929 21 19.2341 20.9863 20.8468 19.4825C22.4222 17.9431 22.4375 14.8032 22.4375 10.6169C17.5669 10.7566 15.3401 10.8725 13.5629 12.5288C12.3701 13.6947 11.9397 15.0634 11.7398 17.3168C11.6489 18.3403 11.6058 19.5473 11.559 21ZM22.4375 10.384C22.4375 6.19683 22.4222 3.05687 20.8468 1.51839C19.2341 0.0146088 16.0929 0 11.559 0C11.7063 4.64922 11.8278 6.7757 13.5629 8.47122C15.3392 10.1275 17.5669 10.2434 22.4375 10.384Z" fill="#4160EA"/>
</svg>
