<?xml version="1.0" encoding="UTF-8"?>
<svg xmlns="http://www.w3.org/2000/svg" width="181" height="26" viewBox="0 0 181 26" fill="none">
  <path d="M0.94 17.58H3.292C3.764 17.58 4.18 17.48 4.54 17.28C4.908 17.08 5.192 16.796 5.392 16.428C5.592 16.06 5.692 15.64 5.692 15.168V4.2H9.412V15.444C9.412 16.5 9.168 17.452 8.68 18.3C8.2 19.14 7.532 19.8 6.676 20.28C5.82 20.76 4.856 21 3.784 21H0.94V17.58ZM12.0061 4.2H24.2341V7.44H15.6301V11.004H23.4181V14.148H15.6301V17.76H24.4741V21H12.0061V4.2ZM25.3518 4.2H39.0078V7.536H34.0518V21H30.3318V7.536H25.3518V4.2ZM48.0413 4.2C49.1133 4.2 50.0693 4.388 50.9093 4.764C51.7493 5.14 52.4013 5.664 52.8653 6.336C53.3293 7.008 53.5613 7.772 53.5613 8.628C53.5613 9.372 53.3853 10.032 53.0333 10.608C52.6893 11.184 52.2093 11.632 51.5933 11.952C50.9773 12.264 50.2693 12.42 49.4693 12.42V12.036C50.3493 12.036 51.1293 12.22 51.8093 12.588C52.4973 12.948 53.0333 13.456 53.4173 14.112C53.8013 14.768 53.9933 15.512 53.9933 16.344C53.9933 17.248 53.7493 18.052 53.2613 18.756C52.7733 19.46 52.0853 20.012 51.1973 20.412C50.3173 20.804 49.3133 21 48.1853 21H40.5773V4.2H48.0413ZM44.1893 18.18H47.6333C48.1373 18.18 48.5813 18.096 48.9653 17.928C49.3573 17.752 49.6573 17.504 49.8653 17.184C50.0813 16.864 50.1893 16.492 50.1893 16.068C50.1893 15.636 50.0813 15.256 49.8653 14.928C49.6493 14.592 49.3453 14.332 48.9533 14.148C48.5693 13.964 48.1293 13.872 47.6333 13.872H44.1893V18.18ZM47.4893 11.136C47.9453 11.136 48.3493 11.052 48.7013 10.884C49.0533 10.708 49.3253 10.464 49.5173 10.152C49.7173 9.832 49.8173 9.46 49.8173 9.036C49.8173 8.628 49.7173 8.272 49.5173 7.968C49.3253 7.664 49.0533 7.432 48.7013 7.272C48.3493 7.104 47.9453 7.02 47.4893 7.02H44.1893V11.136H47.4893ZM61.213 13.608H65.257L69.577 21H65.329L61.213 13.608ZM55.777 4.2H63.133C64.349 4.2 65.417 4.42 66.337 4.86C67.257 5.3 67.969 5.924 68.473 6.732C68.977 7.532 69.229 8.456 69.229 9.504C69.229 10.576 68.973 11.516 68.461 12.324C67.949 13.132 67.225 13.76 66.289 14.208C65.361 14.656 64.277 14.88 63.037 14.88H59.497V21H55.777V4.2ZM62.845 11.868C63.365 11.868 63.817 11.776 64.201 11.592C64.585 11.4 64.881 11.128 65.089 10.776C65.297 10.424 65.401 10.012 65.401 9.54C65.401 9.068 65.297 8.66 65.089 8.316C64.881 7.964 64.585 7.696 64.201 7.512C63.817 7.32 63.365 7.224 62.845 7.224H59.497V11.868H62.845ZM75.6887 4.2H79.7207L85.8647 21H82.1567L80.8847 17.292H74.6567L73.4687 21H69.6887L75.6887 4.2ZM79.9487 14.484L77.8847 8.556L77.6567 7.476L77.4287 8.556L75.4967 14.484H79.9487ZM87.0904 4.2H90.9304V21H87.0904V4.2ZM93.5948 4.2H97.2188L104.443 15.564V4.2H107.839V21H104.179L96.9908 9.636V21H93.5948V4.2ZM116.217 21.288C114.977 21.288 113.877 21.064 112.917 20.616C111.957 20.168 111.201 19.544 110.649 18.744C110.105 17.944 109.825 17.02 109.809 15.972H113.529C113.529 16.404 113.645 16.788 113.877 17.124C114.109 17.452 114.433 17.708 114.849 17.892C115.265 18.068 115.737 18.156 116.265 18.156C116.777 18.156 117.221 18.076 117.597 17.916C117.981 17.756 118.277 17.528 118.485 17.232C118.701 16.936 118.809 16.6 118.809 16.224C118.809 15.76 118.665 15.372 118.377 15.06C118.089 14.748 117.697 14.532 117.201 14.412L114.177 13.788C113.385 13.62 112.689 13.32 112.089 12.888C111.489 12.456 111.025 11.916 110.697 11.268C110.369 10.612 110.205 9.88 110.205 9.072C110.205 8.072 110.457 7.184 110.961 6.408C111.473 5.624 112.185 5.012 113.097 4.572C114.009 4.132 115.049 3.912 116.217 3.912C117.393 3.912 118.437 4.124 119.349 4.548C120.269 4.972 120.985 5.56 121.497 6.312C122.017 7.064 122.289 7.928 122.313 8.904H118.593C118.593 8.544 118.493 8.224 118.293 7.944C118.101 7.656 117.829 7.436 117.477 7.284C117.125 7.124 116.717 7.044 116.253 7.044C115.797 7.044 115.393 7.12 115.041 7.272C114.697 7.416 114.429 7.624 114.237 7.896C114.045 8.16 113.949 8.472 113.949 8.832C113.949 9.232 114.081 9.568 114.345 9.84C114.609 10.104 114.965 10.288 115.413 10.392L118.269 10.98C119.117 11.14 119.869 11.456 120.525 11.928C121.181 12.4 121.689 12.988 122.049 13.692C122.417 14.388 122.601 15.152 122.601 15.984C122.601 17 122.329 17.912 121.785 18.72C121.249 19.52 120.497 20.148 119.529 20.604C118.569 21.06 117.465 21.288 116.217 21.288ZM137.993 4.2C139.025 4.2 139.945 4.388 140.753 4.764C141.561 5.14 142.189 5.664 142.637 6.336C143.093 7 143.321 7.76 143.321 8.616C143.321 9.36 143.145 10.02 142.793 10.596C142.449 11.172 141.965 11.62 141.341 11.94C140.725 12.26 140.013 12.42 139.205 12.42V12.036C140.093 12.036 140.881 12.22 141.569 12.588C142.257 12.956 142.793 13.468 143.177 14.124C143.561 14.78 143.753 15.52 143.753 16.344C143.753 17.24 143.513 18.044 143.033 18.756C142.561 19.46 141.897 20.012 141.041 20.412C140.193 20.804 139.225 21 138.137 21H130.805V4.2H137.993ZM133.721 18.624H137.813C138.381 18.624 138.881 18.524 139.313 18.324C139.753 18.116 140.093 17.828 140.333 17.46C140.573 17.084 140.693 16.648 140.693 16.152C140.693 15.656 140.569 15.216 140.321 14.832C140.081 14.448 139.745 14.148 139.313 13.932C138.881 13.716 138.381 13.608 137.813 13.608H133.721V18.624ZM137.669 11.304C138.189 11.304 138.645 11.208 139.037 11.016C139.437 10.816 139.745 10.536 139.961 10.176C140.185 9.816 140.297 9.4 140.297 8.928C140.297 8.456 140.185 8.044 139.961 7.692C139.745 7.34 139.437 7.068 139.037 6.876C138.637 6.676 138.181 6.576 137.669 6.576H133.721V11.304H137.669ZM146.385 4.2H149.217V21H146.385V4.2ZM158.106 21.288C156.898 21.288 155.802 21.008 154.818 20.448C153.834 19.888 153.058 19.12 152.49 18.144C151.93 17.16 151.65 16.064 151.65 14.856C151.65 13.648 151.93 12.556 152.49 11.58C153.058 10.596 153.834 9.824 154.818 9.264C155.802 8.704 156.902 8.424 158.118 8.424C159.326 8.424 160.422 8.704 161.406 9.264C162.39 9.824 163.162 10.596 163.722 11.58C164.29 12.556 164.574 13.648 164.574 14.856C164.574 16.064 164.29 17.16 163.722 18.144C163.162 19.12 162.39 19.888 161.406 20.448C160.422 21.008 159.322 21.288 158.106 21.288ZM158.106 18.756C158.802 18.756 159.414 18.592 159.942 18.264C160.478 17.936 160.89 17.476 161.178 16.884C161.474 16.292 161.622 15.616 161.622 14.856C161.622 14.088 161.474 13.412 161.178 12.828C160.89 12.236 160.478 11.776 159.942 11.448C159.406 11.112 158.794 10.944 158.106 10.944C157.426 10.944 156.818 11.108 156.282 11.436C155.746 11.764 155.33 12.224 155.034 12.816C154.746 13.408 154.602 14.088 154.602 14.856C154.602 15.616 154.746 16.292 155.034 16.884C155.33 17.476 155.742 17.936 156.27 18.264C156.806 18.592 157.418 18.756 158.106 18.756ZM172.554 25.128C171.57 25.128 170.662 24.968 169.83 24.648C168.998 24.336 168.31 23.896 167.766 23.328C167.222 22.768 166.87 22.124 166.71 21.396H169.518C169.606 21.66 169.79 21.896 170.07 22.104C170.358 22.32 170.71 22.488 171.126 22.608C171.55 22.728 172.01 22.788 172.506 22.788C173.146 22.788 173.718 22.668 174.222 22.428C174.726 22.188 175.118 21.848 175.398 21.408C175.686 20.976 175.83 20.472 175.83 19.896V19.176L175.926 15.744L176.922 14.712C176.906 15.816 176.686 16.792 176.262 17.64C175.846 18.48 175.254 19.132 174.486 19.596C173.718 20.052 172.83 20.28 171.822 20.28C170.742 20.28 169.782 20.028 168.942 19.524C168.11 19.012 167.462 18.308 166.998 17.412C166.542 16.516 166.314 15.496 166.314 14.352C166.314 13.208 166.542 12.188 166.998 11.292C167.462 10.388 168.11 9.684 168.942 9.18C169.782 8.676 170.742 8.424 171.822 8.424C172.83 8.424 173.718 8.656 174.486 9.12C175.254 9.576 175.846 10.228 176.262 11.076C176.686 11.916 176.906 12.9 176.922 14.028L175.926 13.092V8.712H178.686L178.65 19.896C178.65 20.92 178.39 21.828 177.87 22.62C177.35 23.412 176.63 24.028 175.71 24.468C174.79 24.908 173.738 25.128 172.554 25.128ZM172.542 17.868C173.19 17.868 173.766 17.724 174.27 17.436C174.774 17.14 175.162 16.724 175.434 16.188C175.714 15.652 175.854 15.04 175.854 14.352C175.854 13.664 175.714 13.052 175.434 12.516C175.162 11.98 174.774 11.564 174.27 11.268C173.766 10.972 173.19 10.824 172.542 10.824C171.886 10.824 171.306 10.972 170.802 11.268C170.298 11.564 169.91 11.98 169.638 12.516C169.366 13.052 169.23 13.664 169.23 14.352C169.23 15.04 169.366 15.652 169.638 16.188C169.91 16.724 170.298 17.14 170.802 17.436C171.306 17.724 171.886 17.868 172.542 17.868Z" fill="white"></path>
</svg>
